<svg width="168" height="180" viewBox="0 0 168 180" fill="none" xmlns="http://www.w3.org/2000/svg">
<path d="M140.369 117.762H136.481V53.7356C136.481 51.0657 134.304 48.8882 131.634 48.8882H37.1751C34.5052 48.8882 32.3277 51.0657 32.3277 53.7356V117.762H28.4136V53.7356C28.4136 48.9142 32.3277 45 37.1492 45H131.608C136.429 45 140.343 48.9142 140.343 53.7356V117.762H140.369Z" fill="#FF7100"/>
<path d="M130.778 135H38.0304C29.6577 135 22.8403 127.275 22.8403 117.762C22.8403 116.699 23.7217 115.818 24.7845 115.818H73.8542C74.6059 115.818 75.2798 116.233 75.5909 116.907L78.0275 121.858H90.7032L93.1399 116.907C93.4768 116.233 94.1508 115.818 94.8766 115.818H144.024C145.087 115.818 145.968 116.699 145.968 117.762C145.968 127.275 139.151 135 130.778 135ZM129.326 110.245H39.4561C38.3933 110.245 37.512 109.364 37.512 108.301V60.1642C37.512 57.0017 40.0782 54.4614 43.2407 54.4614H125.568C128.73 54.4614 131.297 57.0277 131.297 60.1642V108.275C131.271 109.363 130.415 110.245 129.326 110.245ZM41.4002 106.357H127.382V60.1642C127.382 59.1532 126.553 58.3497 125.542 58.3497H43.2407C42.757 58.3496 42.2928 58.54 41.9484 58.8795C41.604 59.2191 41.407 59.6806 41.4002 60.1642V106.357Z" fill="#FF7100"/>
<rect x="51.6406" y="68.3999" width="51.3" height="4.5" rx="2.25" fill="#FF7100"/>
<rect x="51.6406" y="81" width="51.3" height="4.5" rx="2.25" fill="#FF7100"/>
<rect x="51.6406" y="93.6001" width="51.3" height="4.5" rx="2.25" fill="#FF7100"/>
<rect x="109.24" y="67.5" width="6.3" height="6.3" rx="0.9" fill="#FF7100" stroke="#FF7100" stroke-width="2.7"/>
<rect x="109.24" y="80.1001" width="6.3" height="6.3" rx="0.9" fill="#FF7100" stroke="#FF7100" stroke-width="2.7"/>
<rect x="109.24" y="92.7" width="6.3" height="6.3" rx="0.9" fill="#FF7100" stroke="#FF7100" stroke-width="2.7"/>
</svg>
